<svg width="44" height="35" viewBox="0 0 44 35" fill="none" xmlns="http://www.w3.org/2000/svg">
<path fill-rule="evenodd" clip-rule="evenodd" d="M28.8915 31.1896H27.6218V32.8173C27.6218 33.1949 27.7492 33.4215 28.1387 33.4215C28.3818 33.4134 28.6189 33.3432 28.8278 33.2176L29.0525 33.8898C28.7605 34.0735 28.423 34.1704 28.0787 34.1692C27.1574 34.1692 26.8353 33.6707 26.8353 32.8324V31.1896H26.1087V30.4721H26.8353V29.377H27.6218V30.4721H28.8915V31.1896ZM35.0301 30.5323C34.7918 30.4368 34.5375 30.3881 34.281 30.3888L34.2736 30.3775C34.0063 30.3765 33.7414 30.4291 33.4945 30.5323C33.2681 30.6241 33.0619 30.7601 32.8878 30.9326C32.7162 31.1041 32.5799 31.3081 32.487 31.533C32.2918 32.0173 32.2918 32.5593 32.487 33.0436C32.5799 33.2685 32.7162 33.4726 32.8878 33.6441C33.0619 33.8165 33.2681 33.9526 33.4945 34.0444C33.9884 34.2379 34.5362 34.2379 35.0301 34.0444C35.2576 33.9525 35.465 33.8165 35.6406 33.6441C35.814 33.4733 35.9515 33.2691 36.0451 33.0436C36.2408 32.5594 36.2408 32.0172 36.0451 31.533C35.9514 31.3076 35.8139 31.1035 35.6406 30.9326C35.465 30.7602 35.2576 30.6242 35.0301 30.5323ZM13.2547 31.8127V34.0785H12.472V32.0733C12.472 31.4615 12.2173 31.1216 11.6854 31.1216C11.436 31.1094 11.194 31.2094 11.0248 31.3946C10.8556 31.5798 10.7766 31.8311 10.809 32.0808V34.0785H10.0225V32.0733C10.0225 31.4615 9.76035 31.1216 9.24349 31.1216C8.99325 31.1066 8.74956 31.2058 8.57971 31.3917C8.40985 31.5776 8.3318 31.8306 8.36709 32.0808V34.0785H7.58057V30.4721H8.35959V30.9177C8.59014 30.5641 8.98915 30.3601 9.40829 30.3814C9.88967 30.3606 10.3438 30.6069 10.5918 31.0234C10.8638 30.5941 11.3461 30.3481 11.8502 30.3814C12.2318 30.3588 12.6046 30.5028 12.8735 30.7768C13.1423 31.0508 13.2812 31.4282 13.2547 31.8127ZM17.6368 30.4754V32.2768L17.6293 34.0706H16.8503V33.6325C16.5823 33.9812 16.1639 34.1781 15.7267 34.1612C14.6924 34.1612 13.854 33.3158 13.854 32.273C13.854 31.2302 14.6924 30.3848 15.7267 30.3848C16.1639 30.3679 16.5823 30.5648 16.8503 30.9135V30.4754H17.6368ZM14.7416 32.2772C14.7763 31.6845 15.2744 31.2285 15.8628 31.2508C16.4511 31.273 16.9139 31.7654 16.9044 32.359C16.8949 32.9526 16.4166 33.4297 15.8278 33.4328C15.5263 33.4399 15.2359 33.3186 15.0277 33.0986C14.8196 32.8787 14.713 32.5805 14.7342 32.2772H14.7416ZM34.281 31.1442C34.1284 31.1421 33.977 31.1704 33.8353 31.2273C33.7018 31.2813 33.5807 31.3623 33.4795 31.4652C33.3762 31.5736 33.2959 31.7021 33.2435 31.8429C33.1291 32.1444 33.1291 32.4779 33.2435 32.7794C33.2958 32.9202 33.3761 33.0487 33.4795 33.1571C33.5807 33.2601 33.7018 33.3411 33.8353 33.395C34.1206 33.5076 34.4376 33.5076 34.7229 33.395C34.8628 33.3428 34.9904 33.2618 35.0975 33.1571C35.201 33.0489 35.2813 32.9203 35.3334 32.7794C35.4478 32.4779 35.4478 32.1444 35.3334 31.8429C35.2813 31.702 35.201 31.5735 35.0975 31.4652C34.9904 31.3605 34.8628 31.2795 34.7229 31.2273C34.5816 31.1621 34.4288 31.1261 34.2735 31.1216L34.281 31.1442ZM20.1724 30.3887C21.1724 30.3887 21.869 31.144 21.869 32.2769C21.869 32.3826 21.869 32.477 21.8578 32.5714H19.2023C19.2632 33.1098 19.7381 33.5016 20.2735 33.4551C20.6526 33.4495 21.019 33.3166 21.3147 33.0775L21.6892 33.6591C21.2793 34.0033 20.758 34.1835 20.2248 34.1651C19.1906 34.1797 18.3404 33.3461 18.3259 32.3033C18.3115 31.2605 19.1381 30.4033 20.1724 30.3887ZM19.2061 31.9595C19.2361 31.4613 19.6512 31.0761 20.1461 31.0871C20.3816 31.0821 20.6093 31.1716 20.7793 31.3359C20.9493 31.5002 21.0476 31.7259 21.0525 31.9633L19.2061 31.9595ZM24.0226 31.0838C24.4172 31.0883 24.8041 31.1949 25.1462 31.3935L25.4945 30.759C25.0547 30.4952 24.549 30.3641 24.0375 30.3814C23.1237 30.3814 22.5394 30.8195 22.5394 31.537C22.5394 32.1261 22.9739 32.4886 23.7754 32.6019L24.1499 32.6548C24.5769 32.7152 24.7791 32.8285 24.7791 33.0324C24.7791 33.3119 24.4945 33.4705 23.9626 33.4705C23.5349 33.483 23.1153 33.35 22.7716 33.0929L22.3971 33.7046C22.8497 34.0236 23.3919 34.1877 23.9439 34.1729C24.9739 34.1729 25.5731 33.6291 25.5731 32.9947C25.5731 32.3602 25.1012 32.0279 24.3222 31.9146L23.9477 31.8618C23.6106 31.8164 23.3409 31.7711 23.3409 31.5068C23.3409 31.2424 23.5956 31.0838 24.0226 31.0838ZM32.1387 30.4795C31.9608 30.4153 31.7733 30.3821 31.5844 30.3813L31.5993 30.3965C31.2124 30.385 30.8503 30.5878 30.6555 30.9252V30.4871H29.884V34.0936H30.663V32.0732C30.663 31.4765 30.9027 31.1442 31.4121 31.1442C31.5787 31.1418 31.7442 31.1726 31.899 31.2348L32.1387 30.4795ZM36.9701 33.5537C37.0188 33.5531 37.0672 33.5621 37.1124 33.5802C37.1554 33.5979 37.1948 33.6235 37.2285 33.6557C37.2615 33.6883 37.2881 33.7267 37.3072 33.769C37.3455 33.8581 37.3455 33.9593 37.3072 34.0485C37.2881 34.0908 37.2615 34.1292 37.2285 34.1617C37.1948 34.194 37.1554 34.2196 37.1124 34.2373C37.0676 34.2572 37.0191 34.2675 36.9701 34.2675C36.8252 34.2664 36.6939 34.1811 36.633 34.0485C36.5951 33.9592 36.5951 33.8582 36.633 33.769C36.6521 33.7267 36.6788 33.6883 36.7117 33.6557C36.7454 33.6235 36.7848 33.5979 36.8278 33.5802C36.8672 33.5644 36.909 33.5554 36.9514 33.5537H36.9701ZM37.0788 34.1691C37.0446 34.1842 37.0076 34.192 36.9702 34.1917V34.1766C36.8956 34.177 36.8241 34.147 36.7717 34.0935C36.6746 33.9867 36.6746 33.8227 36.7717 33.7159C36.7974 33.6899 36.8279 33.6694 36.8616 33.6555C36.8959 33.6407 36.9329 33.633 36.9702 33.6328C37.0076 33.6327 37.0445 33.6404 37.0788 33.6555C37.1627 33.6923 37.2232 33.7685 37.2405 33.8591C37.2577 33.9498 37.2294 34.0432 37.1649 34.1086C37.1403 34.1341 37.111 34.1546 37.0788 34.1691ZM36.9927 33.7423C37.0277 33.7405 37.0621 33.7512 37.0901 33.7725C37.1133 33.7919 37.1259 33.8214 37.1238 33.8518C37.1249 33.8771 37.1154 33.9018 37.0976 33.9197C37.0759 33.9396 37.0482 33.9516 37.0189 33.9537L37.1275 34.0784H37.0414L36.9403 33.9537H36.9065V34.0784H36.8354V33.7309L36.9927 33.7423ZM36.9103 33.8975V33.8069L36.9927 33.8296C37.0074 33.8251 37.023 33.8251 37.0377 33.8296C37.043 33.8402 37.043 33.8528 37.0377 33.8635C37.043 33.8742 37.043 33.8868 37.0377 33.8975C37.023 33.9019 37.0074 33.9019 36.9927 33.8975H36.9103Z" fill="black"/>
<rect x="15.9701" y="2.95703" width="11.7978" height="21.3783" fill="#7673C0"/>
<path d="M16.7192 13.648C16.7148 9.47562 18.6139 5.53305 21.869 2.95695C16.3408 -1.42368 8.40212 -0.785602 3.63202 4.42276C-1.13808 9.63112 -1.13808 17.6611 3.63202 22.8695C8.40212 28.0778 16.3408 28.7159 21.869 24.3353C18.6149 21.76 16.7159 17.8191 16.7192 13.648Z" fill="#EB001B"/>
<path fill-rule="evenodd" clip-rule="evenodd" d="M43.2623 21.541V22.5851L43.165 22.5926V21.802L43.0189 22.4807H42.9178L42.7717 21.802V22.5851H42.6743V21.541H42.8129L42.9702 22.2868L43.1275 21.541H43.2623ZM42.3971 21.7493V22.5846L42.3035 22.6144V21.7493H42.1274V21.5703H42.5731V21.7493H42.3971Z" fill="#00A1DF"/>
<path d="M43.6818 13.648C43.6806 18.8518 40.7334 23.5983 36.0915 25.8727C31.4496 28.147 25.9273 27.5501 21.869 24.3353C25.1217 21.7578 27.0208 17.8174 27.0208 13.6461C27.0208 9.47484 25.1217 5.53443 21.869 2.95696C25.9273 -0.260137 31.4511 -0.858413 36.0944 1.41622C40.7378 3.69085 43.6854 8.43904 43.6856 13.6442L43.6818 13.648Z" fill="#00A1DF"/>
</svg>
