<svg width="44" height="35" viewBox="0 0 44 35" fill="none" xmlns="http://www.w3.org/2000/svg">
<path fill-rule="evenodd" clip-rule="evenodd" d="M41.5731 32.2807V29.0254H40.8241V30.9136C40.5557 30.5654 40.1376 30.3686 39.7005 30.3849C38.6662 30.3849 37.8278 31.2303 37.8278 32.2731C37.8278 33.3159 38.6662 34.1613 39.7005 34.1613C40.1376 34.1776 40.5557 33.9808 40.8241 33.6326V34.0707H41.5731V32.2807ZM18.3521 30.476H19.633L19.6405 31.1935H18.3671V32.8401C18.3671 33.2026 18.5094 33.4443 18.884 33.4443C19.1271 33.4362 19.3642 33.366 19.5731 33.2404L19.7978 33.9126C19.5058 34.0963 19.1683 34.1932 18.824 34.192C17.9027 34.192 17.5806 33.6935 17.5806 32.8552V31.1935H16.854V30.476H17.5656V29.3809H18.3521V30.476ZM7.99628 31.8199V34.0857L7.20976 34.1008V32.0918C7.20976 31.48 6.95508 31.1401 6.42324 31.1401C6.17379 31.1279 5.93181 31.2279 5.76259 31.4131C5.59338 31.5983 5.51435 31.8497 5.54683 32.0993V34.1008H4.76031V32.0918C4.76031 31.48 4.49814 31.1401 3.98129 31.1401C3.73144 31.1265 3.48862 31.2261 3.31908 31.4117C3.14955 31.5972 3.071 31.8494 3.10488 32.0993V34.0857H2.31836V30.4755H3.09739V30.9211C3.32794 30.5675 3.72695 30.3635 4.14608 30.3848C4.62746 30.364 5.08159 30.6103 5.3296 31.0268C5.60164 30.5975 6.08385 30.3515 6.58803 30.3848C6.97062 30.3622 7.34436 30.5067 7.61392 30.7813C7.88347 31.056 8.02277 31.4344 7.99628 31.8199ZM26.2773 30.3852C25.8903 30.3737 25.5282 30.5766 25.3334 30.9139V30.4759H24.5619V34.0861H25.3409V32.062C25.3409 31.4653 25.5956 31.133 26.09 31.133C26.2566 31.1307 26.4221 31.1615 26.5769 31.2236L26.8166 30.4683C26.6387 30.4041 26.4512 30.3709 26.2623 30.3701L26.2773 30.3852ZM14.7716 30.3854C15.2843 30.3676 15.7913 30.4987 16.2322 30.763L15.8877 31.3975C15.5456 31.199 15.1587 31.0924 14.7641 31.0878C14.3371 31.0878 14.0824 31.2691 14.0824 31.5108C14.0824 31.7525 14.3521 31.8204 14.6892 31.8657L15.0637 31.9186C15.8427 32.0319 16.3146 32.3114 16.3146 32.9987C16.3146 33.686 15.7154 34.1769 14.6817 34.1769C14.1284 34.1923 13.5849 34.0281 13.1311 33.7086L13.5056 33.0969C13.8493 33.354 14.2689 33.487 14.6967 33.4745C15.2285 33.4745 15.5131 33.3159 15.5131 33.0364C15.5131 32.8325 15.3109 32.7192 14.8839 32.6588L14.5094 32.6059C13.7079 32.4926 13.2734 32.1301 13.2734 31.541C13.2734 30.8235 13.8652 30.3854 14.7716 30.3854ZM37.0975 30.3852C36.7106 30.3737 36.3484 30.5766 36.1537 30.9139V30.4759H35.3821V34.0861H36.1612V32.062C36.1612 31.4653 36.4159 31.133 36.9102 31.133C37.0769 31.1307 37.2423 31.1615 37.3971 31.2236L37.6368 30.4683C37.4589 30.4041 37.2715 30.3709 37.0825 30.3701L37.0975 30.3852ZM27.6013 33.643C27.2378 33.2836 27.0413 32.7864 27.06 32.2734V32.2583C27.0413 31.7453 27.2378 31.2481 27.6013 30.8887C27.9649 30.5293 28.4618 30.3411 28.9701 30.3701C29.4379 30.3461 29.8976 30.4997 30.2585 30.8006L29.884 31.4351C29.6147 31.228 29.2863 31.1141 28.9476 31.1103C28.3505 31.159 27.8906 31.6618 27.8906 32.2659C27.8906 32.8699 28.3505 33.3727 28.9476 33.4215C29.2863 33.4177 29.6147 33.3038 29.884 33.0967L30.2585 33.7311C29.8976 34.032 29.4379 34.1856 28.9701 34.1616C28.4618 34.1907 27.9649 34.0024 27.6013 33.643ZM34.3559 32.2729V30.4754H33.5769V30.9134C33.3085 30.5652 32.8904 30.3685 32.4533 30.3847C31.419 30.3847 30.5806 31.2301 30.5806 32.2729C30.5806 33.3158 31.419 34.1611 32.4533 34.1611C32.8904 34.1774 33.3085 33.9807 33.5769 33.6324V34.0705H34.3559V32.2729ZM32.5781 31.2469C31.9898 31.2246 31.4917 31.6806 31.457 32.2733C31.4371 32.5749 31.5431 32.8712 31.7494 33.0907C31.9556 33.3101 32.2434 33.4327 32.5432 33.4289C33.1319 33.4258 33.6103 32.9487 33.6198 32.3551C33.6293 31.7615 33.1665 31.2691 32.5781 31.2469ZM22.0562 30.3848C21.022 30.3994 20.1953 31.2566 20.2098 32.2994C20.2243 33.3422 21.0744 34.1758 22.1087 34.1612C22.6475 34.1891 23.1774 34.0141 23.5956 33.6703L23.221 33.0887C22.9253 33.3278 22.5589 33.4607 22.1798 33.4663C21.6444 33.5128 21.1696 33.121 21.1087 32.5826H23.7678V32.2805C23.7678 31.1476 23.0712 30.3923 22.0675 30.3923L22.0562 30.3848ZM22.6895 31.3362C22.5195 31.1719 22.2917 31.0824 22.0563 31.0875H22.0413C21.5407 31.0702 21.1182 31.4594 21.09 31.9636H22.9626C22.9577 31.7262 22.8594 31.5005 22.6895 31.3362ZM43.0151 33.5873C42.9726 33.5704 42.9275 33.5614 42.8819 33.5609H42.884C42.8315 33.5587 42.7792 33.5677 42.7304 33.5873C42.6874 33.605 42.6481 33.6306 42.6143 33.6628C42.5814 33.6954 42.5548 33.7338 42.5357 33.7761C42.4978 33.8653 42.4978 33.9663 42.5357 34.0556C42.5965 34.1882 42.7278 34.2735 42.8728 34.2746C42.9218 34.2746 42.9702 34.2643 43.0151 34.2444C43.0581 34.2267 43.0975 34.2011 43.1312 34.1689C43.1641 34.1363 43.1908 34.0979 43.2098 34.0556C43.2482 33.9664 43.2482 33.8653 43.2098 33.7761C43.1908 33.7338 43.1641 33.6954 43.1312 33.6628C43.0975 33.6306 43.0581 33.605 43.0151 33.5873ZM42.876 34.1991C42.9123 34.1989 42.9482 34.1912 42.9814 34.1764C43.0136 34.1619 43.0428 34.1414 43.0675 34.116C43.1646 34.0092 43.1646 33.8452 43.0675 33.7384C43.0429 33.7129 43.0137 33.6924 42.9814 33.6779C42.9471 33.6629 42.9101 33.6552 42.8728 33.6553C42.8354 33.6555 42.7985 33.6632 42.7642 33.6779C42.7305 33.6918 42.7 33.7124 42.6743 33.7384C42.5772 33.8452 42.5772 34.0092 42.6743 34.116C42.7 34.1419 42.7306 34.1624 42.7642 34.1764C42.802 34.1929 42.8429 34.2006 42.884 34.1991H42.876ZM42.9926 33.7801C42.9646 33.7588 42.9302 33.7482 42.8952 33.7499L42.7379 33.7536V34.086H42.8091V33.9613H42.8428L42.9439 34.086H43.0301L42.9214 33.9613C42.9507 33.9592 42.9784 33.9472 43.0001 33.9274C43.0179 33.9094 43.0274 33.8847 43.0263 33.8594C43.0284 33.829 43.0159 33.7995 42.9926 33.7801ZM42.8129 33.8137V33.9044H42.8953C42.9099 33.9088 42.9256 33.9088 42.9402 33.9044C42.9456 33.8937 42.9456 33.8811 42.9402 33.8704C42.9456 33.8597 42.9456 33.8471 42.9402 33.8364C42.9256 33.832 42.9099 33.832 42.8953 33.8364L42.8129 33.8137ZM39.8141 31.2547C39.2257 31.2324 38.7276 31.6884 38.693 32.2811C38.6731 32.5827 38.7791 32.879 38.9853 33.0985C39.1916 33.3179 39.4793 33.4405 39.7791 33.4367C40.3679 33.4336 40.8462 32.9565 40.8558 32.3629C40.8653 31.7693 40.4025 31.277 39.8141 31.2547ZM12.3895 32.2805V30.4754H11.6105V30.9134C11.3421 30.5652 10.924 30.3685 10.4869 30.3847C9.45268 30.3847 8.61426 31.2301 8.61426 32.2729C8.61426 33.3158 9.45268 34.1611 10.4869 34.1611C10.924 34.1774 11.3421 33.9807 11.6105 33.6324V34.0705H12.3895V32.2805ZM10.6118 31.2547C10.0234 31.2324 9.52528 31.6884 9.49064 32.2811H9.48315C9.46315 32.5841 9.57013 32.8816 9.77803 33.1013C9.98593 33.321 10.2757 33.4426 10.5768 33.4367C11.1656 33.4336 11.6439 32.9565 11.6534 32.3629C11.6629 31.7693 11.2001 31.277 10.6118 31.2547Z" fill="#231F20"/>
<rect x="15.9738" y="2.96484" width="11.7978" height="21.3783" fill="#FF5F00"/>
<path d="M16.7228 13.6558C16.7184 9.48343 18.6175 5.54087 21.8727 2.96476C16.3445 -1.41587 8.40578 -0.77779 3.63568 4.43057C-1.13442 9.63893 -1.13442 17.6689 3.63568 22.8773C8.40578 28.0856 16.3445 28.7237 21.8727 24.3431C18.6186 21.7678 16.7196 17.8269 16.7228 13.6558Z" fill="#EB001B"/>
<path d="M43.6892 13.6553C43.6891 18.8605 40.7414 23.6087 36.0981 25.8833C31.4548 28.158 25.931 27.5597 21.8727 24.3426C25.1253 21.7651 27.0245 17.8247 27.0245 13.6534C27.0245 9.48216 25.1253 5.54175 21.8727 2.96428C25.931 -0.252812 31.4548 -0.851089 36.0981 1.42354C40.7414 3.69817 43.6891 8.44637 43.6892 13.6516V13.6553Z" fill="#F79E1B"/>
<path fill-rule="evenodd" clip-rule="evenodd" d="M42.4008 21.7311V22.6146H42.3221V21.7311H42.1311V21.5483H42.5768V21.7311H42.4008ZM43.2659 21.5483V22.6146L43.1872 22.6223V21.8149L43.0412 22.508H42.94L42.794 21.8149V22.6146H42.6966V21.5483H42.8164L42.9737 22.31L43.1311 21.5483H43.2659Z" fill="#F79E1B"/>
</svg>
