<svg width="77" height="29" viewBox="0 0 77 29" fill="none" xmlns="http://www.w3.org/2000/svg">
<path fill-rule="evenodd" clip-rule="evenodd" d="M72.58 11.2557C72.58 10.351 73.3087 9.61328 74.1834 9.61328C75.0822 9.61328 75.7863 10.351 75.7863 11.2557C75.7863 12.16 75.0822 12.8977 74.1834 12.8977C73.3087 12.9213 72.58 12.1836 72.58 11.2557ZM74.1834 12.5401C74.8634 12.5401 75.398 11.969 75.398 11.2791C75.398 10.5887 74.8392 10.0176 74.1834 10.0176C73.5029 10.0176 72.9688 10.5887 72.9688 11.2791C72.9688 11.969 73.5029 12.5401 74.1834 12.5401ZM73.9646 11.9937H73.6246V10.542H74.2317C74.3534 10.542 74.4988 10.542 74.5963 10.613C74.7176 10.6844 74.7663 10.8273 74.7663 10.9702C74.7663 11.1368 74.6693 11.2797 74.5234 11.327L74.7905 11.9696H74.4259L74.2076 11.3985H73.9646V11.9937ZM73.9645 11.184H74.1587C74.2316 11.184 74.3045 11.184 74.3533 11.1604C74.4016 11.1363 74.4258 11.0648 74.4258 10.9934C74.4258 10.946 74.4016 10.8746 74.3533 10.8509C74.3045 10.8268 74.2075 10.8268 74.1587 10.8268H73.9887L73.9645 11.184Z" fill="#EB001B"/>
<path fill-rule="evenodd" clip-rule="evenodd" d="M51.7386 1.19192L51.3488 3.76913C50.5037 3.31057 49.8752 3.13557 49.2037 3.13557C47.4274 3.13557 46.1705 4.97023 46.1705 7.56958C46.1705 9.36039 47.0156 10.4525 48.4021 10.4525C48.9871 10.4525 49.637 10.2558 50.4386 9.84066L50.0268 12.549C49.1387 12.8113 48.5753 12.8986 47.9038 12.8986C45.3258 12.8986 43.7227 10.9328 43.7227 7.78758C43.7227 3.5507 45.9323 0.580078 49.1171 0.580078C49.5285 0.580078 49.8968 0.623933 50.2004 0.711217L51.1967 0.973493C51.4569 1.08249 51.5219 1.10463 51.7386 1.19192Z" fill="#EB001B"/>
<path fill-rule="evenodd" clip-rule="evenodd" d="M43.6378 3.06543C43.574 3.04346 43.489 3.04346 43.4041 3.04346C42.6388 3.04346 42.1925 3.46301 41.4699 4.63423L41.6824 3.15373H39.5568L38.1116 12.8983H40.4709C41.3207 6.93231 41.5333 5.91573 42.6599 5.91573C42.7237 5.91573 42.7448 5.91573 42.8298 5.91573C43.0423 4.74494 43.3187 3.883 43.7227 3.08739L43.6378 3.06543Z" fill="#EB001B"/>
<path fill-rule="evenodd" clip-rule="evenodd" d="M29.7669 13.385C29.1019 13.6078 28.57 13.7194 28.0156 13.7194C26.7747 13.7194 26.0876 12.9615 26.0876 11.558C26.0876 11.2904 26.1097 10.9786 26.1538 10.6667L26.3089 9.70848L26.4199 8.92879L27.4837 2.22217H29.922L29.6338 3.67035H30.8972L30.5425 6.05459L29.3011 6.05415L28.6586 10.1541C28.6365 10.3322 28.6141 10.466 28.6141 10.5551C28.6141 11.0676 28.8802 11.2904 29.4566 11.2904C29.7448 11.2904 29.944 11.2683 30.1212 11.2014L29.7669 13.385Z" fill="#EB001B"/>
<path fill-rule="evenodd" clip-rule="evenodd" d="M20.5369 6.24939C20.5369 7.4545 21.0836 8.27203 22.303 8.89618C23.228 9.36933 23.3965 9.51992 23.3965 9.95029C23.3965 10.5312 22.976 10.811 22.0718 10.811C21.3779 10.811 20.7471 10.7036 19.9905 10.4239L19.6749 12.6185L19.7803 12.6399L20.2008 12.7263C20.3479 12.7477 20.5369 12.7905 20.8103 12.8123C21.357 12.855 21.7984 12.8983 22.0927 12.8983C24.5318 12.8983 25.6671 11.8869 25.6671 9.7351C25.6671 8.44401 25.2044 7.66968 24.0269 7.08873C23.06 6.61516 22.9547 6.50778 22.9547 6.0556C22.9547 5.53924 23.3334 5.28128 24.09 5.28128C24.5527 5.28128 25.1622 5.34587 25.7512 5.43186L26.0877 3.23725C25.4778 3.12945 24.5736 3.04346 24.0482 3.04346C21.4201 3.04346 20.516 4.48514 20.5369 6.24939Z" fill="#EB001B"/>
<path fill-rule="evenodd" clip-rule="evenodd" d="M70.8332 12.7643H68.6237L68.7287 11.7993C68.0974 12.5622 67.4242 12.8986 66.5824 12.8986C64.8779 12.8986 63.7625 11.2609 63.7625 8.79255C63.7625 5.494 65.4883 2.71204 67.5505 2.71204C68.4555 2.71204 69.1287 3.13808 69.781 4.05797L70.2859 0.580078H72.58L70.8332 12.7643ZM67.4033 10.4526C68.4973 10.4526 69.255 9.0839 69.255 7.10941C69.255 5.85272 68.8132 5.15723 68.0133 5.15723C66.961 5.15723 66.2037 6.54865 66.2037 8.47808C66.2037 9.7794 66.6033 10.4526 67.4033 10.4526Z" fill="#EB001B"/>
<path fill-rule="evenodd" clip-rule="evenodd" d="M37.2677 12.5136C36.4659 12.7699 35.7068 12.8983 34.863 12.8983C32.2682 12.8983 30.8972 11.4446 30.8972 8.66578C30.8972 5.41641 32.6268 3.04346 34.9682 3.04346C36.8878 3.04346 38.1115 4.38996 38.1115 6.48495C38.1115 7.16924 38.0268 7.85312 37.8159 8.81539H33.1753C33.1544 8.965 33.1544 9.02918 33.1544 9.11461C33.1544 10.2261 33.8505 10.782 35.2006 10.782C36.023 10.782 36.7825 10.5895 37.6263 10.1836L37.2677 12.5136ZM35.9596 6.89122C35.9806 6.69868 35.9806 6.52782 35.9806 6.42071C35.9806 5.6514 35.5801 5.20215 34.8839 5.20215C34.1458 5.20215 33.6182 5.80101 33.4072 6.89122H35.9596Z" fill="#EB001B"/>
<path fill-rule="evenodd" clip-rule="evenodd" d="M9.83475 12.8986H7.50108L8.83768 3.421L5.82536 12.8986H4.23401L4.04336 3.48923L2.62198 12.8986H0.436768L2.26136 0.580078H5.6343L5.71908 8.21672L8.01016 0.580078H11.6589L9.83475 12.8986Z" fill="#EB001B"/>
<path fill-rule="evenodd" clip-rule="evenodd" d="M16.3648 8.53009C16.1163 8.5087 16.0124 8.4873 15.8467 8.4873C14.5405 8.4873 13.8979 8.98227 13.8979 9.92899C13.8979 10.5099 14.2297 10.8971 14.7272 10.8971C15.6394 10.8971 16.3236 9.92899 16.3648 8.53009ZM18.0234 12.7477H16.1162L16.1574 11.7577C15.5771 12.5539 14.81 12.8983 13.7528 12.8983C12.5088 12.8983 11.6589 11.8437 11.6589 10.3161C11.6589 7.99225 13.1514 6.65836 15.6805 6.65836C15.9501 6.65836 16.2819 6.67976 16.6137 6.72296C16.6759 6.39998 16.6966 6.27078 16.6966 6.0988C16.6966 5.47465 16.3025 5.23807 15.2247 5.23807C14.5821 5.23807 13.8356 5.34587 13.3175 5.51785L13.027 5.62523L12.82 5.68983L13.1308 3.55981C14.2709 3.19404 15.038 3.04346 15.8673 3.04346C17.8366 3.04346 18.8733 4.01157 18.8733 5.81902C18.8733 6.29259 18.8316 6.63655 18.6865 7.71247L18.2307 11.0908L18.1478 11.6931L18.0856 12.1667L18.044 12.5107L18.0234 12.7477Z" fill="#EB001B"/>
<path fill-rule="evenodd" clip-rule="evenodd" d="M55.6699 8.53976C55.4406 8.51842 55.3154 8.49707 55.1488 8.49707C53.8351 8.49707 53.1681 8.99096 53.1681 9.93563C53.1681 10.5153 53.5018 10.9016 54.0022 10.9016C54.9403 10.9016 55.6284 9.93563 55.6699 8.53976ZM57.338 12.748H55.4199L55.4614 11.7602C54.8777 12.5546 54.1062 12.8983 53.0429 12.8983C51.7918 12.8983 50.937 11.846 50.937 10.3216C50.937 8.00287 52.4385 6.67188 54.9821 6.67188C55.2321 6.67188 55.5865 6.69323 55.9203 6.73634C55.9829 6.41405 56.0036 6.28514 56.0036 6.11353C56.0036 5.49073 55.6073 5.25466 54.5232 5.25466C53.877 5.25466 53.1262 5.36223 52.6051 5.53384L52.2714 5.61964L52.0629 5.6841L52.3759 3.55869C53.5225 3.19372 54.294 3.04346 55.1281 3.04346C57.1088 3.04346 58.1513 4.00947 58.1513 5.81301C58.1513 6.28514 58.1095 6.62877 57.9635 7.70235L57.4839 11.0516L57.4213 11.6526L57.3587 12.1252L57.3173 12.4475L57.338 12.748Z" fill="#EB001B"/>
<path fill-rule="evenodd" clip-rule="evenodd" d="M64.4791 3.06543C64.4153 3.04346 64.3303 3.04346 64.2454 3.04346C63.4801 3.04346 63.0338 3.46301 62.3108 4.63423L62.5233 3.15373H60.3981L58.9529 12.8983H61.3122C62.162 6.93231 62.3746 5.91573 63.5012 5.91573C63.565 5.91573 63.565 5.91573 63.6715 5.91573C63.8837 4.74494 64.1816 3.883 64.564 3.08739L64.4791 3.06543Z" fill="#EB001B"/>
<path fill-rule="evenodd" clip-rule="evenodd" d="M54.0796 22.849C54.0796 24.9822 53.3777 26.2405 52.2684 26.2405C51.4531 26.2617 50.9777 25.4084 50.9777 24.1501C50.9777 22.6568 51.702 20.9507 52.8343 20.9507C53.7626 20.9507 54.0796 21.8676 54.0796 22.849ZM56.5481 22.8702C56.5481 20.5024 55.3024 18.647 52.9699 18.647C50.2754 18.647 48.5322 20.8866 48.5322 24.1929C48.5322 26.5602 49.5736 28.5018 52.1096 28.5018C54.6685 28.5018 56.5481 26.7952 56.5481 22.8702Z" fill="#F79E1B"/>
<path fill-rule="evenodd" clip-rule="evenodd" d="M49.3338 16.7945L48.9804 19.3723C48.2112 18.9133 47.6705 18.7387 47.0674 18.7387C45.4669 18.7387 44.3442 20.5734 44.3442 23.1724C44.3442 24.9633 45.0924 26.0554 46.3399 26.0554C46.8806 26.0554 47.4626 25.8592 48.1694 25.444L47.7953 28.1525C47.005 28.4143 46.4854 28.5016 45.8823 28.5016C43.5749 28.5016 42.1195 26.5362 42.1195 23.3909C42.1195 19.1534 44.1152 16.1831 46.9636 16.1831C47.3377 16.1831 47.6498 16.227 47.9201 16.3142L48.7932 16.5765C49.0842 16.6638 49.1466 16.6855 49.3338 16.7945Z" fill="#F79E1B"/>
<path fill-rule="evenodd" clip-rule="evenodd" d="M34.8139 18.6689C34.7455 18.647 34.6543 18.647 34.5631 18.647C33.7877 18.647 33.3541 19.067 32.6244 20.2377L32.8525 18.7572H30.7311L29.2939 28.5018H31.6435C32.4875 22.5358 32.7156 21.5197 33.833 21.5197C33.9015 21.5197 33.9015 21.5197 34.0158 21.5416C34.2208 20.3704 34.5173 19.5089 34.9051 18.7133L34.8139 18.6689Z" fill="#F79E1B"/>
<path fill-rule="evenodd" clip-rule="evenodd" d="M64.4128 28.3666H62.2084L62.3207 27.3999C61.691 28.1642 61.0161 28.5016 60.1614 28.5016C58.4745 28.5016 57.3497 26.8605 57.3497 24.3881C57.3497 21.0836 59.0818 18.2961 61.1288 18.2961C62.0282 18.2961 62.7258 18.7234 63.3555 19.6673L63.873 16.1831H66.1672L64.4128 28.3666ZM60.9714 26.0288C62.0733 26.0288 62.8157 24.6576 62.8157 22.6795C62.8157 21.421 62.3882 20.7466 61.5787 20.7466C60.5214 20.7466 59.7791 22.1177 59.7791 24.073C59.7791 25.3771 60.1838 26.0288 60.9714 26.0288Z" fill="#F79E1B"/>
<path fill-rule="evenodd" clip-rule="evenodd" d="M14.006 28.1167C13.2146 28.3734 12.4457 28.5018 11.6089 28.5018C9.00763 28.5018 7.651 27.0482 7.651 24.2691C7.651 21.0411 9.39253 18.647 11.7218 18.647C13.6441 18.647 14.8653 19.9722 14.8653 22.0887C14.8653 22.773 14.7749 23.4569 14.5712 24.4187H9.93527C9.91234 24.5683 9.91234 24.6324 9.91234 24.7179C9.91234 25.808 10.6138 26.3639 11.9709 26.3639C12.8072 26.3639 13.5537 26.1718 14.3905 25.7655L14.006 28.1167ZM12.6944 22.4942C12.6944 22.3021 12.7169 22.1313 12.7169 22.0242C12.7169 21.2545 12.31 20.8057 11.609 20.8057C10.8625 20.8057 10.3423 21.4041 10.1161 22.4942H12.6944Z" fill="#F79E1B"/>
<path fill-rule="evenodd" clip-rule="evenodd" d="M40.4608 28.1167C39.6719 28.3734 38.9054 28.5018 38.0713 28.5018C35.4558 28.5018 34.1035 27.0482 34.1035 24.2691C34.1035 21.0411 35.8391 18.647 38.1614 18.647C40.0776 18.647 41.3178 19.9722 41.3178 22.0887C41.3178 22.773 41.2277 23.4569 41.0247 24.4187H36.403C36.3801 24.5683 36.3801 24.6324 36.3801 24.7179C36.3801 25.808 37.0793 26.3639 38.4321 26.3639C39.2663 26.3639 40.0103 26.1718 40.8441 25.7655L40.4608 28.1167ZM39.1533 22.4942C39.1757 22.3021 39.1757 22.1313 39.1757 22.0242C39.1757 21.2545 38.7701 20.8057 38.0713 20.8057C37.3272 20.8057 36.8086 21.4041 36.5831 22.4942H39.1533Z" fill="#F79E1B"/>
<path fill-rule="evenodd" clip-rule="evenodd" d="M72.525 28.1167C71.7132 28.3734 70.9468 28.5018 70.135 28.5018C67.5424 28.5018 66.1672 27.0482 66.1672 24.2691C66.1672 21.0411 67.9032 18.647 70.248 18.647C72.1642 18.647 73.3816 19.9722 73.3816 22.0887C73.3816 22.773 73.2915 23.4569 73.0884 24.4187H68.4667C68.4443 24.5683 68.4443 24.6324 68.4443 24.7179C68.4443 25.808 69.1431 26.3639 70.4958 26.3639C71.33 26.3639 72.0741 26.1718 72.9082 25.7655L72.525 28.1167ZM71.217 22.4942C71.217 22.3021 71.2399 22.1313 71.2399 22.0242C71.2399 21.2545 70.8338 20.8057 70.135 20.8057C69.3909 20.8057 68.8723 21.4041 68.6469 22.4942H71.217Z" fill="#F79E1B"/>
<path fill-rule="evenodd" clip-rule="evenodd" d="M7.09136 19.069C6.67671 18.7675 6.09636 18.5308 5.30869 18.5308C4.43777 18.5308 3.75355 18.7243 3.75355 19.6718C3.75355 21.352 6.90505 20.7273 6.90505 24.3453C6.90505 27.6401 4.8318 28.5016 2.94527 28.5016C2.11597 28.5016 1.14159 28.2216 0.436768 27.8769L0.954877 25.465C1.39054 25.8743 2.24045 26.1544 2.96588 26.1544C3.65009 26.1544 4.68672 25.9604 4.68672 24.7328C4.68672 22.8163 1.53563 23.5271 1.53563 20.1672C1.53563 17.0878 3.38053 16.1831 5.1636 16.1831C6.1586 16.1831 7.11237 16.3338 7.65109 16.7217L7.09136 19.069Z" fill="#F79E1B"/>
<path fill-rule="evenodd" clip-rule="evenodd" d="M20.0044 28.1356C19.5506 28.3508 18.9247 28.5018 18.0176 28.5018C16.0747 28.5018 14.8654 26.5651 14.8654 24.1981C14.8654 21.0996 16.6143 18.647 19.1836 18.647C19.7451 18.647 20.6088 18.8835 21.2781 19.2707L20.7814 21.5303C20.3066 21.2074 19.8099 21.0136 19.2918 21.0136C18.1039 21.0136 17.2406 22.1113 17.2406 24.0475C17.2406 25.1666 17.8665 26.0915 18.8384 26.0915C19.4214 26.0915 19.8314 25.9628 20.3281 25.683L20.0044 28.1356Z" fill="#F79E1B"/>
<path fill-rule="evenodd" clip-rule="evenodd" d="M29.0339 25.7678C28.9258 26.6059 28.8172 27.4217 28.7522 28.2813H26.6076L26.7807 26.716H26.7592C26.0877 27.7746 25.3942 28.5018 24.1593 28.5018C22.8163 28.5018 22.0797 27.0469 22.0797 25.173C22.0797 24.5115 22.1228 24.1587 22.2529 23.1444L22.8598 18.647H25.2641L24.6146 23.1663C24.5495 23.6515 24.4629 24.1368 24.4629 24.6435C24.4629 25.2168 24.7227 25.7902 25.3727 25.7459C26.3478 25.7459 26.9323 24.5335 27.1059 23.1005L27.7774 18.647H30.0956L29.0339 25.7678Z" fill="#F79E1B"/>
<path fill-rule="evenodd" clip-rule="evenodd" d="M74.3928 27.6806H73.9735V26.3331H73.3816V26.0381H74.9848V26.3331H74.3928V27.6806Z" fill="#F79E1B"/>
<path fill-rule="evenodd" clip-rule="evenodd" d="M76.5879 27.6806H76.259V26.3148L75.9508 27.6806H75.6218L75.3137 26.3148V27.6806H74.9847V26.0381H75.4984L75.7865 27.3298H75.807L76.0947 26.0381H76.5879V27.6806Z" fill="#F79E1B"/>
</svg>
