<svg width="62" height="21" viewBox="0 0 62 21" fill="none" xmlns="http://www.w3.org/2000/svg">
<path fill-rule="evenodd" clip-rule="evenodd" d="M44.7294 5.06141C46.1165 5.06141 47.2408 3.96421 47.2408 2.61122C47.2408 1.25743 46.1165 0.15918 44.7294 0.15918C43.344 0.15918 42.2202 1.25743 42.2202 2.61122C42.2202 3.96421 43.344 5.06141 44.7294 5.06141ZM25.4957 6.3852C25.4889 6.40178 25.4796 6.42538 25.4678 6.45559C25.2809 6.9318 24.449 9.05166 22.5942 11.244V1.27539L17.3384 2.28961V20.3587H22.5942V14.7734C24.1164 17.0026 24.8681 20.3587 24.8681 20.3587H31.1635C30.5407 17.8311 27.8168 13.1705 27.8168 13.1705C30.2615 10.1441 31.3353 6.91945 31.5061 6.3852H25.4957ZM32.2158 12.5051C32.2158 8.40577 34.6055 6.34362 39.3131 6.19609C39.3131 6.19609 40.1619 6.16395 40.664 6.26801V10.347C37.6808 10.4474 37.3516 11.4995 37.3516 13.9542V20.3583H32.2158V12.5051ZM8.52374 8.37491L8.52122 8.37475C7.8761 8.33331 6.38956 8.23781 6.38956 6.92946C6.38956 5.34859 8.53534 5.34859 9.34017 5.34859C10.7553 5.34859 12.5881 5.75692 13.8969 6.13916C13.8969 6.13916 14.627 6.39047 15.2484 6.64785L15.3061 6.66313V2.3336L15.2268 2.31068C13.6822 1.78303 11.8861 1.27539 8.55611 1.27539C2.81462 1.27539 0.780273 4.54117 0.780273 7.33883C0.780273 8.95157 1.48825 12.7471 8.06371 13.1849L8.07051 13.1853C8.63305 13.2191 10.1005 13.3071 10.1005 14.6554C10.1005 15.7732 8.88932 16.4323 6.85228 16.4323C4.6199 16.4323 2.45443 15.8764 1.13912 15.3493V19.8084C3.10817 20.3124 5.32787 20.5642 7.92935 20.5642C13.5432 20.5642 16.0576 17.4744 16.0576 14.412C16.0576 10.9397 13.244 8.68366 8.52374 8.37491ZM47.2777 20.3581H42.1835V6.40039H47.2777V20.3581ZM56.8699 2.16527V20.3588H61.9649V1.27539L56.8699 2.16527ZM54.5258 1.27539L49.4357 2.16527V20.3588H54.5258V1.27539Z" fill="url(#paint0_linear)"/>
<defs>
<linearGradient id="paint0_linear" x1="-244.902" y1="-71.7639" x2="-241.337" y2="103.719" gradientUnits="userSpaceOnUse">
<stop stop-color="#6B195F"/>
<stop offset="1" stop-color="#4C255B"/>
</linearGradient>
</defs>
</svg>
