<svg width="61" height="21" viewBox="0 0 61 21" fill="none" xmlns="http://www.w3.org/2000/svg">
<path fill-rule="evenodd" clip-rule="evenodd" d="M29.7619 0.520508L25.7454 20.2554H20.8878L24.9059 0.520508H29.7619ZM50.1966 13.2625L52.7534 5.85254L54.2253 13.2625H50.1966ZM55.6164 20.2554H60.1087L56.1874 0.520508H52.0419C51.1093 0.520508 50.3232 1.09001 49.9742 1.96782L42.6863 20.2554H47.7853L48.7985 17.307H55.0295L55.6164 20.2554ZM42.9388 13.8112C42.9605 8.60318 36.0869 8.31565 36.1342 5.98849C36.1493 5.28092 36.7904 4.5286 38.1943 4.33584C38.8892 4.24048 40.8085 4.16648 42.9827 5.21862L43.8362 1.03406C42.6666 0.58799 41.1636 0.15918 39.2919 0.15918C34.4915 0.15918 31.1121 2.84202 31.0851 6.68231C31.0531 9.52486 33.4967 11.1088 35.3378 12.0538C37.2293 13.0209 37.8637 13.6413 37.8568 14.5062C37.8426 15.8309 36.3474 16.4148 34.9496 16.4376C32.5077 16.4777 31.0904 15.7438 29.9611 15.1907L29.0818 19.5153C30.2155 20.0629 32.3104 20.5403 34.4829 20.5637C39.5857 20.5637 42.9229 17.9153 42.9388 13.8112ZM22.8215 0.520508L14.952 20.2554H9.81803L5.94547 4.50558C5.71032 3.53593 5.50634 3.17995 4.79144 2.7722C3.62405 2.10559 1.69612 1.4808 0 1.09265L0.114373 0.520508H8.37959C9.43233 0.520508 10.3802 1.25674 10.6192 2.53235L12.6646 13.9526L17.7198 0.520508H22.8215Z" fill="#191F71"/>
<mask id="mask0" mask-type="alpha" maskUnits="userSpaceOnUse" x="0" y="0" width="61" height="21">
<path fill-rule="evenodd" clip-rule="evenodd" d="M29.7619 0.520508L25.7454 20.2554H20.8878L24.9059 0.520508H29.7619ZM50.1966 13.2625L52.7534 5.85254L54.2253 13.2625H50.1966ZM55.6164 20.2554H60.1087L56.1874 0.520508H52.0419C51.1093 0.520508 50.3232 1.09001 49.9742 1.96782L42.6863 20.2554H47.7853L48.7985 17.307H55.0295L55.6164 20.2554ZM42.9388 13.8112C42.9605 8.60318 36.0869 8.31565 36.1342 5.98849C36.1493 5.28092 36.7904 4.5286 38.1943 4.33584C38.8892 4.24048 40.8085 4.16648 42.9827 5.21862L43.8362 1.03406C42.6666 0.58799 41.1636 0.15918 39.2919 0.15918C34.4915 0.15918 31.1121 2.84202 31.0851 6.68231C31.0531 9.52486 33.4967 11.1088 35.3378 12.0538C37.2293 13.0209 37.8637 13.6413 37.8568 14.5062C37.8426 15.8309 36.3474 16.4148 34.9496 16.4376C32.5077 16.4777 31.0904 15.7438 29.9611 15.1907L29.0818 19.5153C30.2155 20.0629 32.3104 20.5403 34.4829 20.5637C39.5857 20.5637 42.9229 17.9153 42.9388 13.8112ZM22.8215 0.520508L14.952 20.2554H9.81803L5.94547 4.50558C5.71032 3.53593 5.50634 3.17995 4.79144 2.7722C3.62405 2.10559 1.69612 1.4808 0 1.09265L0.114373 0.520508H8.37959C9.43233 0.520508 10.3802 1.25674 10.6192 2.53235L12.6646 13.9526L17.7198 0.520508H22.8215Z" fill="white"/>
</mask>
<g mask="url(#mask0)">
</g>
</svg>
