<svg width="31" height="35" viewBox="0 0 31 35" fill="none" xmlns="http://www.w3.org/2000/svg">
<path d="M30.9949 0H0V34.3654H30.9949V0Z" fill="#1C3378"/>
<path d="M30.0461 22.6942H0.632568V0.972656H30.0461V22.6942Z" fill="white"/>
<path d="M22.7718 4.86328L16.9949 19.1282H13.2203L10.3769 7.74145C10.2055 7.04174 10.0545 6.78517 9.53135 6.48663C8.66999 6.00849 7.25395 5.556 6.00928 5.27378L6.09271 4.86328H12.1628C12.9362 4.86328 13.6329 5.39506 13.8088 6.31403L15.3128 14.5684L19.0243 4.86328H22.7718Z" fill="#1C3378"/>
<path fill-rule="evenodd" clip-rule="evenodd" d="M9.29849 24.9639C8.54441 24.9639 7.99006 25.0205 7.59058 25.0974V31.4479H8.69702V29.0209C8.8429 29.0481 9.03591 29.0594 9.24238 29.0594C10.0324 29.0594 10.7304 28.8398 11.1747 28.3734C11.5204 28.027 11.7021 27.5222 11.7021 26.9132C11.7021 26.3087 11.4665 25.8038 11.1029 25.4891C10.7124 25.145 10.1154 24.9639 9.29849 24.9639ZM9.24239 28.1447C9.01571 28.1447 8.83392 28.1334 8.69702 28.0949V25.9192C8.81597 25.8898 9.03592 25.8604 9.34114 25.8604C10.1154 25.8604 10.5867 26.243 10.5867 26.9584C10.5867 27.7123 10.0773 28.1447 9.24239 28.1447Z" fill="white"/>
<path fill-rule="evenodd" clip-rule="evenodd" d="M13.803 31.4479L14.3308 29.6097H16.2735L16.8282 31.4479H18.0275L16.0377 24.9639H14.6115L12.6509 31.4479H13.803ZM15.602 27.1186L16.0826 28.7151H14.5127L14.9843 27.1186C15.0571 26.86 15.1227 26.5691 15.1853 26.2916C15.2154 26.1581 15.2449 26.0276 15.2741 25.9053H15.292C15.3126 25.9892 15.3335 26.0765 15.3548 26.1657C15.4292 26.4766 15.5095 26.8121 15.602 27.1186Z" fill="white"/>
<path d="M20.2685 31.4479V28.743L18.344 24.9639H19.6069L20.34 26.6265C20.5479 27.11 20.6999 27.4726 20.8653 27.9174H20.8809C21.0351 27.5023 21.2094 27.0986 21.4151 26.6265L22.1482 24.9639H23.4044L21.3793 28.7156V31.4479H20.2685Z" fill="white"/>
</svg>
