<?xml version="1.0" encoding="utf-8"?>
<!-- Generator: Adobe Illustrator 23.0.6, SVG Export Plug-In . SVG Version: 6.00 Build 0)  -->
<svg version="1.1" id="Layer_1" xmlns="http://www.w3.org/2000/svg" xmlns:xlink="http://www.w3.org/1999/xlink" x="0px" y="0px"
	 viewBox="0 0 24 24" style="enable-background:new 0 0 24 24;" xml:space="preserve">
<style type="text/css">
	.st0{fill:none;}
	.st1{fill:#4188FE;}
</style>
<circle class="st0" cx="12" cy="7" r="3"/>
<path class="st1" d="M12,2C9.2,2,7,4.2,7,7s2.2,5,5,5s5-2.2,5-5S14.8,2,12,2z M12,10c-1.7,0-3-1.3-3-3s1.3-3,3-3s3,1.3,3,3
	S13.7,10,12,10z M21,21v-1c0-3.9-3.1-7-7-7h-4c-3.9,0-7,3.1-7,7v1h2v-1c0-2.8,2.2-5,5-5h4c2.8,0,5,2.2,5,5v1H21z"/>
</svg>
