<?xml version="1.0" encoding="utf-8"?>
<!-- Generator: Adobe Illustrator 23.0.6, SVG Export Plug-In . SVG Version: 6.00 Build 0)  -->
<svg version="1.1" id="Layer_1" xmlns="http://www.w3.org/2000/svg" xmlns:xlink="http://www.w3.org/1999/xlink" x="0px" y="0px"
	 viewBox="0 0 16 16" style="enable-background:new 0 0 16 16;" xml:space="preserve">
<style type="text/css">
	.st0{fill-rule:evenodd;clip-rule:evenodd;fill:#4188FE;}
</style>
<path class="st0" d="M5,11.5C5,11.2,5.2,11,5.5,11h9c0.3,0,0.5,0.2,0.5,0.5S14.8,12,14.5,12h-9C5.2,12,5,11.8,5,11.5z M5,7.5
	C5,7.2,5.2,7,5.5,7h9C14.8,7,15,7.2,15,7.5S14.8,8,14.5,8h-9C5.2,8,5,7.8,5,7.5z M5,3.5C5,3.2,5.2,3,5.5,3h9C14.8,3,15,3.2,15,3.5
	S14.8,4,14.5,4h-9C5.2,4,5,3.8,5,3.5z M3.9,2.1C4,2.3,4,2.7,3.9,2.9c0,0,0,0,0,0L2.4,4.4c-0.2,0.2-0.5,0.2-0.7,0c0,0,0,0,0,0
	L1.1,3.9C1,3.7,1,3.3,1.1,3.1s0.5-0.2,0.7,0l0,0L2,3.3l1.1-1.1C3.3,2,3.7,2,3.9,2.1C3.9,2.1,3.9,2.1,3.9,2.1z M3.9,6.1
	C4,6.3,4,6.7,3.9,6.9c0,0,0,0,0,0L2.4,8.4c-0.2,0.2-0.5,0.2-0.7,0c0,0,0,0,0,0L1.1,7.9C1,7.7,1,7.3,1.1,7.1s0.5-0.2,0.7,0L2,7.3
	l1.1-1.1C3.3,6,3.7,6,3.9,6.1C3.9,6.1,3.9,6.1,3.9,6.1z M3.9,10.1c0.2,0.2,0.2,0.5,0,0.7c0,0,0,0,0,0l-1.5,1.5
	c-0.2,0.2-0.5,0.2-0.7,0c0,0,0,0,0,0l-0.5-0.5c-0.2-0.2-0.2-0.5,0-0.7s0.5-0.2,0.7,0L2,11.3l1.1-1.1C3.3,10,3.7,10,3.9,10.1
	C3.9,10.1,3.9,10.1,3.9,10.1z"/>
</svg>
