<?xml version="1.0" encoding="utf-8"?>
<!-- Generator: Adobe Illustrator 23.0.6, SVG Export Plug-In . SVG Version: 6.00 Build 0)  -->
<svg version="1.1" id="Layer_1" xmlns="http://www.w3.org/2000/svg" xmlns:xlink="http://www.w3.org/1999/xlink" x="0px" y="0px"
	 viewBox="0 0 16 16" style="enable-background:new 0 0 16 16;" xml:space="preserve">
<style type="text/css">
	.st0{fill:#4188FE;}
</style>
<path class="st0" d="M12.1,0.3c0.8-0.2,1.6,0.3,1.8,1.1c0,0.1,0,0.2,0,0.4V3h0.5C15.3,3,16,3.7,16,4.5v9c0,0.8-0.7,1.5-1.5,1.5h-13
	C0.7,15,0,14.3,0,13.5v-9C0,3.7,0.6,3,1.4,3L12.1,0.3z M5.6,3H13V1.8c0-0.3-0.2-0.5-0.5-0.5c0,0-0.1,0-0.1,0L5.6,3z M1.5,4
	C1.2,4,1,4.2,1,4.5v9C1,13.8,1.2,14,1.5,14h13c0.3,0,0.5-0.2,0.5-0.5v-9C15,4.2,14.8,4,14.5,4H1.5z"/>
</svg>
